<svg xmlns="http://www.w3.org/2000/svg" width="105.588" height="55.589" viewBox="0 0 105.588 55.589">
  <g id="visible" transform="translate(-0.218 -120.555)">
    <g id="Group_323" data-name="Group 323" transform="translate(0.218 120.555)">
      <g id="Group_322" data-name="Group 322">
        <path id="Path_70" data-name="Path 70" d="M105.276,147.1c-12.974-17.075-32.1-26.868-52.482-26.868S13.286,130.028.312,147.1a1.53,1.53,0,0,0,0,1.853c12.974,17.075,32.1,26.868,52.482,26.868s39.508-9.793,52.482-26.868A1.53,1.53,0,0,0,105.276,147.1ZM52.794,172.747c-19.027,0-36.928-8.993-49.291-24.717,12.363-15.724,30.264-24.717,49.291-24.717s36.928,8.993,49.291,24.717C89.722,163.754,71.821,172.747,52.794,172.747Z" transform="translate(0 -120.235)" fill="#709044"/>
      </g>
    </g>
    <g id="Group_325" data-name="Group 325" transform="translate(28.218 123.555)">
      <g id="Group_324" data-name="Group 324" transform="translate(0 0)">
        <path id="Path_71" data-name="Path 71" d="M179.565,144.556a1.556,1.556,0,1,0-2.322,2.072,21.632,21.632,0,1,1-6.253-4.849,1.556,1.556,0,1,0,1.427-2.766,24.815,24.815,0,1,0,7.148,5.542Z" transform="translate(-136.267 -136.266)" fill="#709044"/>
      </g>
    </g>
    <g id="Group_327" data-name="Group 327" transform="translate(43.157 138.493)">
      <g id="Group_326" data-name="Group 326" transform="translate(0 0)">
        <path id="Path_72" data-name="Path 72" d="M218.262,208.407a9.855,9.855,0,1,0,9.855,9.855A9.867,9.867,0,0,0,218.262,208.407Zm0,16.6a6.743,6.743,0,1,1,6.743-6.743A6.751,6.751,0,0,1,218.262,225.006Z" transform="translate(-208.407 -208.407)" fill="#709044"/>
      </g>
    </g>
  </g>
</svg>
