<svg xmlns="http://www.w3.org/2000/svg" width="105.178" height="105.407" viewBox="0 0 105.178 105.407">
  <path id="unity" d="M100.234,69.127h-.821l.033-.07a5.369,5.369,0,0,0,.489-2.3,5.47,5.47,0,0,0-5.5-5.364h-5.01V51.435l3.32-2.334a6.332,6.332,0,0,0,2.687-5.174v-7.91a1.544,1.544,0,0,0-3.088,0v7.91a3.24,3.24,0,0,1-1.375,2.648l-3.976,2.8a1.544,1.544,0,0,0-.656,1.263V61.4H69.863l2.8-7.469a5.621,5.621,0,0,0-3.746-7.383,3.58,3.58,0,0,0-3.754,1.19L49.741,38.2a.5.5,0,0,1-.194-.549,2.532,2.532,0,0,1,3.327-1.688l9.555,3.579A1.544,1.544,0,0,0,64.515,38.1V11.3a2.374,2.374,0,0,1,2.3-2.411,2.32,2.32,0,0,1,2.341,2.321V24.275a1.544,1.544,0,1,0,3.088,0V5.5a2.374,2.374,0,0,1,2.3-2.411,2.318,2.318,0,0,1,2.341,2.321V24.275a1.544,1.544,0,1,0,3.088,0V11.206a2.321,2.321,0,1,1,4.642,0V24.275a1.544,1.544,0,1,0,3.088,0V17a2.332,2.332,0,0,1,2.276-2.32,2.276,2.276,0,0,1,1.629.664,2.461,2.461,0,0,1,.737,1.744v12.2a1.544,1.544,0,1,0,3.088,0V17.09a5.567,5.567,0,0,0-1.663-3.948A5.326,5.326,0,0,0,87.7,12.123v-.917a5.424,5.424,0,0,0-3.158-4.919,5.412,5.412,0,0,0-4.572.034V5.409a5.409,5.409,0,1,0-10.818.09v.821l-.07-.033a5.257,5.257,0,0,0-2.3-.49,5.47,5.47,0,0,0-5.364,5.5v4.713H51.991l-2.334-3.32A6.332,6.332,0,0,0,44.482,10H17.646A5.567,5.567,0,0,0,13.7,11.664a5.325,5.325,0,0,0-1.019,6.067h-.917a5.426,5.426,0,0,0-4.92,3.158,5.414,5.414,0,0,0,.034,4.572H5.964a5.409,5.409,0,1,0,.09,10.818h.821l-.033.07a5.369,5.369,0,0,0-.489,2.3,5.47,5.47,0,0,0,5.5,5.364h5.01v9.962l-3.32,2.334a6.332,6.332,0,0,0-2.688,5.175V88.316a5.567,5.567,0,0,0,1.663,3.948,5.325,5.325,0,0,0,6.067,1.019V94.2a5.424,5.424,0,0,0,3.158,4.919,5.413,5.413,0,0,0,4.572-.034V100a5.425,5.425,0,0,0,3.158,4.92,5.361,5.361,0,0,0,2.25.49h.046a5.47,5.47,0,0,0,5.364-5.5v-.821l.07.033a5.413,5.413,0,0,0,2.3.49,5.47,5.47,0,0,0,5.364-5.5V89.4H54.3l2.334,3.32a6.333,6.333,0,0,0,5.174,2.687h5.1a1.544,1.544,0,1,0,0-3.088h-5.1a3.241,3.241,0,0,1-2.648-1.375l-2.8-3.976A1.544,1.544,0,0,0,55.1,86.31H44.861V69.538l7.469,2.8a5.621,5.621,0,0,0,7.384-3.746,3.582,3.582,0,0,0-1.424-3.929l9.243-14.948a.5.5,0,0,1,.549-.194,2.533,2.533,0,0,1,1.688,3.327L66.19,62.4a1.544,1.544,0,0,0,1.446,2.086h26.8a2.374,2.374,0,0,1,2.411,2.3,2.32,2.32,0,0,1-2.321,2.341H81.457a1.544,1.544,0,0,0,0,3.088h18.777a2.374,2.374,0,0,1,2.411,2.3,2.3,2.3,0,0,1-.209.985,2.329,2.329,0,0,1-2.112,1.356H81.457a1.544,1.544,0,0,0,0,3.088H94.526a2.323,2.323,0,0,1,2.321,2.321,2.3,2.3,0,0,1-.209.965,2.329,2.329,0,0,1-2.112,1.356H81.457a1.544,1.544,0,0,0,0,3.088h7.272a2.332,2.332,0,0,1,2.32,2.276,2.255,2.255,0,0,1-.664,1.629,2.46,2.46,0,0,1-1.744.737h-15a1.544,1.544,0,1,0,0,3.088h15a5.567,5.567,0,0,0,3.948-1.663,5.325,5.325,0,0,0,1.019-6.067h.917a5.426,5.426,0,0,0,4.92-3.158,5.414,5.414,0,0,0-.034-4.572h.912a5.41,5.41,0,1,0-.09-10.819ZM9.441,38.619a2.3,2.3,0,0,1,.209-.984,2.322,2.322,0,0,1,2.112-1.356H24.831a1.544,1.544,0,1,0,0-3.088H6.054a2.374,2.374,0,0,1-2.411-2.3,2.3,2.3,0,0,1,.209-.985,2.329,2.329,0,0,1,2.112-1.356H24.831a1.544,1.544,0,1,0,0-3.088H11.762A2.323,2.323,0,0,1,9.441,23.14a2.3,2.3,0,0,1,.209-.965,2.329,2.329,0,0,1,2.112-1.356H24.831a1.544,1.544,0,0,0,0-3.088H17.559a2.332,2.332,0,0,1-2.32-2.275,2.255,2.255,0,0,1,.664-1.629,2.46,2.46,0,0,1,1.744-.737H44.482a3.241,3.241,0,0,1,2.648,1.375l2.8,3.976a1.544,1.544,0,0,0,1.263.656H61.427V35.869l-7.469-2.8a5.621,5.621,0,0,0-7.384,3.746A3.582,3.582,0,0,0,48,40.746L38.755,55.695a.5.5,0,0,1-.549.194,2.533,2.533,0,0,1-1.688-3.327L40.1,43.006a1.544,1.544,0,0,0-1.446-2.086h-26.8A2.374,2.374,0,0,1,9.441,38.619Zm47.3,29.136a2.532,2.532,0,0,1-3.327,1.688l-9.555-3.579a1.544,1.544,0,0,0-2.086,1.446v26.8a2.374,2.374,0,0,1-2.3,2.411h-.02a2.3,2.3,0,0,1-.965-.209A2.321,2.321,0,0,1,37.131,94.2V81.131a1.544,1.544,0,1,0-3.088,0V99.908a2.374,2.374,0,0,1-2.3,2.411h-.02a2.3,2.3,0,0,1-.965-.209A2.329,2.329,0,0,1,29.4,100V81.131a1.544,1.544,0,0,0-3.088,0V94.2a2.321,2.321,0,1,1-4.642,0V81.131a1.544,1.544,0,1,0-3.088,0V88.4a2.332,2.332,0,0,1-2.276,2.32,2.268,2.268,0,0,1-1.629-.664,2.461,2.461,0,0,1-.737-1.744V61.479a3.241,3.241,0,0,1,1.376-2.648l3.976-2.8a1.544,1.544,0,0,0,.656-1.263V44.008H36.425l-2.8,7.469a5.621,5.621,0,0,0,3.746,7.383,3.581,3.581,0,0,0,3.754-1.189l4.321,2.672a1.544,1.544,0,1,0,1.624-2.627l-4.295-2.655,7.845-12.687,12.889,7.97L55.666,63.031,52.8,61.256a1.544,1.544,0,1,0-1.624,2.627l5.375,3.324a.5.5,0,0,1,.194.549Z" transform="translate(-0.555 0)" fill="#709044"/>
</svg>
