<svg xmlns="http://www.w3.org/2000/svg" width="103.86" height="109.139" viewBox="0 0 103.86 109.139">
  <g id="wheelchair" transform="translate(-0.659 1.98)">
    <g id="growth" transform="translate(-11.725 -1.98)">
      <g id="Group_328" data-name="Group 328" transform="translate(12.383)">
        <path id="Path_73" data-name="Path 73" d="M110.528,18.768l-.051-.009c-4.037-.662-7.234,1.784-8.343,6.382L95.5,45.079a6.317,6.317,0,0,0-6.695.071,14.293,14.293,0,0,0-8.265-2.638c-.307,0-.62.011-.935.032A19.529,19.529,0,0,0,65.247,34.4V16.815h5.143A7.314,7.314,0,0,0,77.7,9.509V1.6A1.6,1.6,0,0,0,76.1,0H69.356A7.314,7.314,0,0,0,62.05,7.306v3.427a9.031,9.031,0,0,0-5.875-2.168H47.346a1.6,1.6,0,0,0-1.6,1.6V16.9a9.083,9.083,0,0,0,9.073,9.073h7.23V34.4a19.529,19.529,0,0,0-14.359,8.146c-.315-.021-.628-.032-.935-.032a14.153,14.153,0,0,0-7.693,2.249,6.223,6.223,0,0,0-5.938.318L26.492,25.141c-1.109-4.6-4.307-7.045-8.343-6.382l-.051.009c-5.256,1.035-6.012,6.069-5.631,8.88,0,.03.009.061.015.091l6.081,31.216a15.065,15.065,0,0,0,6.054,9.9l.063.044C35.78,76.2,35.9,75.884,38.111,79.337H34.926a3.361,3.361,0,0,0-3.365,3.345v22.869a3.591,3.591,0,0,0,3.587,3.587H62.2a3.687,3.687,0,0,0,2.111-.663,3.686,3.686,0,0,0,2.111.663h10.8a1.6,1.6,0,1,0,0-3.2h-10.8a.513.513,0,0,1-.512-.512V92.465H93.868v13.087a.39.39,0,0,1-.389.389h-8.8a1.6,1.6,0,1,0,0,3.2h8.8a3.591,3.591,0,0,0,3.587-3.587V82.68A3.36,3.36,0,0,0,93.7,79.337H90.516c2.224-3.476,2.45-3.216,13.431-10.443.022-.014.042-.029.063-.044a15.065,15.065,0,0,0,6.054-9.893l1.23-6.315a1.6,1.6,0,1,0-3.139-.611l-1.239,6.361c-.007.036-.013.073-.017.11a11.638,11.638,0,0,1-4.743,7.743c-11.772,7.749-11.732,7.2-14.98,12.395q-.211.337-.437.7H66.877c1.93-11.3,1.492-10.42,8.518-20.569,1.716-2.377,3.228-3.106,14.719-10.669a3.4,3.4,0,0,1,4.861.7l.011.013c.007.009.013.019.02.027a2.464,2.464,0,0,1-.3,3.566c-2.965,2.61-10,8.849-10.068,8.911a1.6,1.6,0,1,0,2.122,2.392c.071-.063,7.1-6.3,10.059-8.9a5.583,5.583,0,0,0,1.211-7.184l7.165-21.534c.012-.036.022-.072.032-.108l.022-.087c.5-2.079,1.724-4.454,4.693-3.983,3.437.7,3.169,4.412,3.061,5.265l-3.388,17.394a1.6,1.6,0,0,0,3.139.611l3.4-17.442c.006-.03.011-.06.015-.09C116.541,24.837,115.785,19.8,110.528,18.768ZM54.819,22.774A5.882,5.882,0,0,1,48.944,16.9V11.764h7.23a5.882,5.882,0,0,1,5.875,5.875v5.135ZM65.247,11.967V7.306A4.113,4.113,0,0,1,69.355,3.2H74.5V9.509a4.113,4.113,0,0,1-4.108,4.108H65.247v-1.65ZM26.47,66.244a11.64,11.64,0,0,1-4.742-7.736c0-.039-.011-.078-.018-.117L15.629,27.175c-.109-.853-.376-4.57,3.061-5.265,2.971-.471,4.192,1.9,4.693,3.983l.022.088q.014.055.032.108L30.6,47.623a5.583,5.583,0,0,0,1.211,7.184c2.96,2.605,9.989,8.84,10.059,8.9a1.6,1.6,0,0,0,2.122-2.392c-.071-.063-7.1-6.3-10.068-8.911a2.463,2.463,0,0,1-.305-3.564l.013-.019.011-.013a3.358,3.358,0,0,1,4.7-.817c.1.063,5.071,3.316,5.173,3.382,7.032,4.6,8.3,5.423,9.723,7.4l0,0c7.191,10.388,6.639,9.6,8.509,20.558H41.887c-.152-.241-.3-.473-.438-.7C38.2,73.443,38.252,74,26.47,66.244Zm35.732,39.7H35.147a.39.39,0,0,1-.389-.389V92.465H62.714v12.964h0A.513.513,0,0,1,62.2,105.941Zm.512-23.222v6.549H34.758V82.684a.157.157,0,0,1,.169-.15H62.552a.14.14,0,0,1,.062.015l.006,0a.188.188,0,0,1,.094.162ZM93.7,82.534a.156.156,0,0,1,.167.148v6.586H65.911V82.714a.177.177,0,0,1,.005-.028.171.171,0,0,1,.156-.152ZM73.163,56.412l-.016.02C65.763,66,64.928,71.72,64.313,75.317A35.752,35.752,0,0,0,62.4,67.542c-1.458-3.551-6.577-10.712-7.254-11.524-1.8-2.157-4.108-3.527-12.9-9.292l-.057-.037a11.018,11.018,0,0,1,4.566-.979,11.306,11.306,0,0,1,1.508.105,1.6,1.6,0,0,0,1.561-.72,16.414,16.414,0,0,1,27.649,0,1.6,1.6,0,0,0,1.561.72,11.264,11.264,0,0,1,1.507-.1,11.1,11.1,0,0,1,5.315,1.359C77.038,52.844,74.991,54.053,73.163,56.412Z" transform="translate(-12.383)" fill="#709044"/>
      </g>
    </g>
  </g>
</svg>
