<svg id="wheelchair" xmlns="http://www.w3.org/2000/svg" width="105.178" height="105.178" viewBox="0 0 105.178 105.178">
  <g id="Group_319" data-name="Group 319">
    <path id="Path_67" data-name="Path 67" d="M103.637,93.879H97.988V73.542a7.712,7.712,0,0,0-7.7-7.7H83.608V37.285a7.712,7.712,0,0,0-7.7-7.7H31.122V7.7a7.712,7.712,0,0,0-7.7-7.7H4.93a4.622,4.622,0,0,0,0,9.244H21.878v34.2A31.631,31.631,0,1,0,62.932,68.92H80.527V85.785a9.758,9.758,0,1,0,3.081,0V78.832h11.3V95.42a1.541,1.541,0,0,0,1.541,1.541h7.19a1.541,1.541,0,1,0,0-3.081ZM24.959,3.346A4.63,4.63,0,0,1,28.041,7.7V29.581H24.959Zm0,35.479H75.9a1.541,1.541,0,0,0,0-3.081H24.959V32.663H75.9a4.627,4.627,0,0,1,4.622,4.622V48.378H50.783a31.6,31.6,0,0,0-25.824-5.76ZM4.93,6.163a1.541,1.541,0,0,1,0-3.081H21.878V6.163ZM31.635,102.1A28.554,28.554,0,1,1,60.19,73.542,28.586,28.586,0,0,1,31.635,102.1ZM62.321,65.839a31.625,31.625,0,0,0-8.056-14.38H80.527v14.38ZM88.744,95.42a6.676,6.676,0,1,1-6.676-6.676A6.684,6.684,0,0,1,88.744,95.42Zm6.163-19.669h-11.3V68.92h6.676a4.627,4.627,0,0,1,4.622,4.622Z" fill="#709044"/>
    <g id="Group_310" data-name="Group 310" transform="translate(20.851 62.757)">
      <g id="Group_309" data-name="Group 309">
        <path id="Path_68" data-name="Path 68" d="M112.285,305.5a10.785,10.785,0,1,0,10.785,10.785A10.8,10.8,0,0,0,112.285,305.5Zm0,18.488a7.7,7.7,0,1,1,7.7-7.7A7.712,7.712,0,0,1,112.285,323.988Z" transform="translate(-101.5 -305.5)" fill="#709044"/>
      </g>
    </g>
    <g id="Group_312" data-name="Group 312" transform="translate(6.163 48.069)">
      <g id="Group_311" data-name="Group 311">
        <path id="Path_69" data-name="Path 69" d="M55.473,234A25.5,25.5,0,0,0,30,259.473a25.212,25.212,0,0,0,5.3,15.536,1.541,1.541,0,1,0,2.439-1.883,22.157,22.157,0,0,1-4.658-13.654,22.391,22.391,0,1,1,22.391,22.391,22.156,22.156,0,0,1-13.654-4.658,1.541,1.541,0,1,0-1.883,2.439,25.212,25.212,0,0,0,15.537,5.3,25.473,25.473,0,1,0,0-50.945Z" transform="translate(-30 -234)" fill="#709044"/>
      </g>
    </g>
  </g>
</svg>
